<svg version="1.1" id="el_raaCV3jTf" xmlns="http://www.w3.org/2000/svg" xmlns:xlink="http://www.w3.org/1999/xlink" x="0px" y="0px" viewBox="0 0 274 184" style="enable-background:new 0 0 274 184;" xml:space="preserve"><style>@-webkit-keyframes el_WZJoguwAbk_HtK1BMJai_Animation{0%{-webkit-transform: translate(138.19000244140625px, 93.3640365600586px) rotate(0deg) translate(-138.19000244140625px, -93.3640365600586px);transform: translate(138.19000244140625px, 93.3640365600586px) rotate(0deg) translate(-138.19000244140625px, -93.3640365600586px);}100%{-webkit-transform: translate(138.19000244140625px, 93.3640365600586px) rotate(360deg) translate(-138.19000244140625px, -93.3640365600586px);transform: translate(138.19000244140625px, 93.3640365600586px) rotate(360deg) translate(-138.19000244140625px, -93.3640365600586px);}}@keyframes el_WZJoguwAbk_HtK1BMJai_Animation{0%{-webkit-transform: translate(138.19000244140625px, 93.3640365600586px) rotate(0deg) translate(-138.19000244140625px, -93.3640365600586px);transform: translate(138.19000244140625px, 93.3640365600586px) rotate(0deg) translate(-138.19000244140625px, -93.3640365600586px);}100%{-webkit-transform: translate(138.19000244140625px, 93.3640365600586px) rotate(360deg) translate(-138.19000244140625px, -93.3640365600586px);transform: translate(138.19000244140625px, 93.3640365600586px) rotate(360deg) translate(-138.19000244140625px, -93.3640365600586px);}}#el_raaCV3jTf *{-webkit-animation-duration: 5s;animation-duration: 5s;-webkit-animation-iteration-count: infinite;animation-iteration-count: infinite;-webkit-animation-timing-function: cubic-bezier(0, 0, 1, 1);animation-timing-function: cubic-bezier(0, 0, 1, 1);}#el_Be26uAyZMM{fill: none;stroke: transparent;stoke-miterlimit: 10;}#el_vrkDnDHiQY{fill-rule: evenodd;clip-rule: evenodd;fill: #000000;}#el_ZNif-Frj6l{fill-rule: evenodd;clip-rule: evenodd;fill: #000000;}#el_TMdH2hfAov{fill-rule: evenodd;clip-rule: evenodd;fill: #000000;}#el_qlpihXufZa{fill-rule: evenodd;clip-rule: evenodd;fill: #000000;}#el_3HqkURfidi{fill-rule: evenodd;clip-rule: evenodd;fill: #000000;}#el_zcQBCT4WvU{fill-rule: evenodd;clip-rule: evenodd;fill: #000000;}#el_DS7ZJ01vA1{fill-rule: evenodd;clip-rule: evenodd;fill: #000000;}#el_WZJoguwAbk_HtK1BMJai{-webkit-animation-name: el_WZJoguwAbk_HtK1BMJai_Animation;animation-name: el_WZJoguwAbk_HtK1BMJai_Animation;-webkit-transform: translate(138.19000244140625px, 93.3640365600586px) rotate(0deg) translate(-138.19000244140625px, -93.3640365600586px);transform: translate(138.19000244140625px, 93.3640365600586px) rotate(0deg) translate(-138.19000244140625px, -93.3640365600586px);}</style>

<g id="el_ySySjX23HV">
	<circle id="el_Be26uAyZMM" cx="137.25" cy="93.93" r="85.79"/>
	<g data-animator-group="false" data-animator-type="1"><g id="el_WZJoguwAbk">
			<path d="M185.21,125.25c0-4.32,3.35-7.72,8.25-7.72c3.85,0,7.18,3.53,7.18,8.08c0,4.08-3.38,7.54-7.9,7.54&#10;&#9;&#9;C188.53,133.15,185.21,129.48,185.21,125.25L185.21,125.25z M206.38,125.27v0.34c-0.02,1.88-0.44,3.76-1.31,5.5&#10;&#9;&#9;c-0.61,1.22-1.06,2.06-1.96,3.06c-0.16,0.18-0.25,0.28-0.43,0.47c-0.03,0.03-0.06,0.07-0.09,0.09c-0.03,0.03-0.06,0.06-0.09,0.09&#10;&#9;&#9;l-0.18,0.17c-1.45,1.34-2.17,1.89-3.95,2.69c-13.08,5.83-24.84-10.3-15.62-21.19c1.55-1.83,4.98-4.17,7.31-4.36V95.1h-21.71&#10;&#9;&#9;c-1.32,0-2.41-1.41-2.51-2.69l0-15.07c-0.51-0.14-1.36-0.7-1.87-1c-0.62-0.37-1.15-0.66-1.72-0.97c-6.3-3.41-14.1-8.28-20.58-11.9&#10;&#9;&#9;c-4.85-2.71-2.1-2.57-9.33,1.37l-16.83,9.73c-1.23,0.73-6.43,4.02-7.82,4.02c-1.69,0-2.87-1.24-2.87-3.05&#10;&#9;&#9;c0-0.83,0.72-1.81,1.26-2.15l12.86-7.41c0.75-0.42,1.35-0.74,2.07-1.17l12.72-7.38c0.82-0.49,3.45-2.16,4.48-2.16&#10;&#9;&#9;c1.38,0,12.84,7.07,15.38,8.49l14.89,8.61c1.42,0.79,3.11,1.42,3.11,3.53v13.46h20.46c4.96,0,3.77,3.87,3.77,9.51&#10;&#9;&#9;c0,4.43,0,8.85,0,13.28c1.26,0.1,3.28,1.11,4.24,1.69C203.96,116.2,206.33,120.7,206.38,125.27L206.38,125.27z" id="el_vrkDnDHiQY"/>
	<path d="M84,69.26c-2.52,0-4.2-0.34-6.06-2.19c-5.79-5.76,0.33-16.34,8.63-12.76c4.72,2.03,6.04,8.7,2.59,12.4&#10;&#9;&#9;C88.09,67.86,86.14,69.26,84,69.26L84,69.26z M70,60.47c0,4.44,0.51,6.4,3.31,9.97c1.34,1.71,5.01,4.15,7.28,4.2v17.95&#10;&#9;&#9;c0,0.91,0.61,1.61,1.21,2.02c0.95,0.65,1.45,0.5,2.92,0.49l16.87,0c1.27,0,1.86,0.18,3.23,0.18v15.61c0,2.17,1.69,2.72,3.09,3.55&#10;&#9;&#9;l12.88,7.4c2.41,1.38,15.87,9.54,17.27,9.64c1.22,0.08,3.54-1.57,4.46-2.1l25.73-14.83c1.3-0.77,3.33-1.57,3.33-3.49&#10;&#9;&#9;c0-1.88-1.32-2.87-3.23-2.87c-0.95,0-9.89,5.37-11.34,6.25c-4.69,2.84-10.15,5.77-15.01,8.68c-0.62,0.37-1.23,0.72-1.83,1.04&#10;&#9;&#9;c-2.92,1.58-0.55,1.82-8.85-2.82c-1.21-0.68-2.19-1.29-3.41-1.97c-1.24-0.69-2.32-1.35-3.52-2.04c-1.43-0.83-13.08-7.71-13.83-7.89&#10;&#9;&#9;l0.01-16.52c0.01-1.84-0.79-3.09-2.2-3.36c-1.84-0.36-8.72-0.04-11.09-0.04c-3.87,0-7.12-0.18-10.95-0.18V74.65&#10;&#9;&#9;c1.35-0.03,3.38-1.17,4.42-1.87c6.83-4.54,8.15-13.45,2.74-20.18c-4.66-5.8-14.31-6.47-19.95-0.26C71.62,54.43,70,57.47,70,60.47&#10;&#9;&#9;L70,60.47z" id="el_ZNif-Frj6l"/>
	<path d="M83.82,133.15c-2.77,0-4.02-0.66-5.77-2.12c-0.42-0.35-1.26-1.52-1.53-2.06c-3.04-6.09,2.66-14.04,10.28-10.64&#10;&#9;&#9;c4.07,1.82,6.12,7.98,2.27,12.35C88.04,131.85,85.94,133.15,83.82,133.15L83.82,133.15z M70,124.35c0,3.58,0.35,6.09,2.61,9.05&#10;&#9;&#9;c4.85,6.37,13.7,7.12,18.87,2.74c0.41-0.35,0.55-0.48,0.98-0.82c0.37-0.29,0.62-0.55,0.87-0.92l15.76,9.19&#10;&#9;&#9;c3.06,1.85,4.26,1.11,5.78-1.83c0.37-0.71,0.68-1.32,1.07-1.98c0.41-0.7,0.68-1.39,1.12-2.11l2.12-3.99&#10;&#9;&#9;c0.99-1.9,3.02-4.19,1.22-6.24c-1.08-1.22-3.6-1.6-4.87,0.97l-4.96,9.4c-1.21-0.64-2.28-1.35-3.53-2.04l-10.83-6.22&#10;&#9;&#9;c1.1-4.73,0.91-8.28-2.13-12.41c-4.8-6.54-14.32-7.08-20-1.64C71.93,117.56,70,121.33,70,124.35L70,124.35z" id="el_TMdH2hfAov"/>
	<path d="M185.21,61.37c0-6.65,8.24-10.36,13.06-5.52c4.11,4.13,2.58,10.6-1.93,12.7&#10;&#9;&#9;C191.32,70.88,185.21,67.49,185.21,61.37L185.21,61.37z M206.38,60.96v1.19c-0.17,3.83-1.96,7.67-5.69,10.4&#10;&#9;&#9;c-4.6,3.37-11.06,3.3-15.72-0.18l-1.46-1.24c-0.03-0.03-0.06-0.06-0.09-0.09c-1.24-1.3-2.02-2.44-2.83-4.17&#10;&#9;&#9;c-1.61-3.43-1.22-6.19-0.42-9.63c-1.35-0.31-13.26-7.96-14.54-8.25c-0.2,0.87-1.17,2.31-1.61,3.06l-1.68,2.99&#10;&#9;&#9;c-0.57,1.03-1.03,2.03-1.66,3c-2.1,3.25-5.46,1.25-5.46-1.15c0-1.03,0.4-1.53,0.82-2.23l3.3-5.85c0.76-1.31,1.42-2.62,2.17-3.93&#10;&#9;&#9;c1.95-3.4,2.98-3.23,5.74-1.63c4.51,2.6,11.67,6.98,15.78,9.16c0.43-0.65,1.2-1.19,1.85-1.74c3.49-2.96,9.05-3.52,13.58-1.49&#10;&#9;&#9;C203.33,51.34,206.17,56.05,206.38,60.96L206.38,60.96z" id="el_qlpihXufZa"/>
	<path d="M138.19,165.09c-6.44,0-10.5-8.1-5.52-13.42c2.72-2.91,8.41-3.04,11.17,0.24c1.18,1.4,2.07,2.99,2.07,5.46&#10;&#9;&#9;C145.91,161.64,142.06,165.09,138.19,165.09L138.19,165.09z M161.7,140.15l-11.88,6.96c-0.6,0.36-1.18,0.87-1.94,0.93&#10;&#9;&#9;c-0.22-0.81-0.2-0.33-1.21-1.3c-0.47-0.45-0.89-0.72-1.44-1.07c-8.61-5.38-20.5,0.4-20.5,11.88c0,3.88,2.01,7.31,3.99,9.29&#10;&#9;&#9;c3.48,3.49,9.92,5.19,14.85,2.74c1.4-0.7,1.93-0.97,3.1-1.92c0.4-0.33,0.62-0.45,0.98-0.81c0.35-0.35,0.44-0.51,0.73-0.88&#10;&#9;&#9;c2.05-2.58,3.25-5.32,3.25-8.95c0-1.22-0.34-3.15-0.72-3.95l14.86-8.65c0.41-0.25,0.74-0.39,1.15-0.64&#10;&#9;&#9;c2.08-1.27,1.52-3.22,0.55-4.94l-5.41-9.67c-1.15-1.91-1.45-3.02-3.62-3.02c-1.31,0-2.65,1.42-2.65,2.87&#10;&#9;&#9;c0,1.01,2.98,6.07,3.81,7.46C160.36,137.71,160.95,139.03,161.7,140.15L161.7,140.15z" id="el_3HqkURfidi"/>
	<path d="M138.73,37.32c-2.44,0-4.54-0.46-6.15-2.29c-5.06-5.73-0.33-13.63,5.76-13.3c6.28,0.33,10.22,7.54,5.49,13.16&#10;&#9;&#9;C142.85,36.06,140.79,37.32,138.73,37.32L138.73,37.32z M124.73,28.71c0,3.42,0.54,4.03,0.54,5.2c-0.79,0.18-1.52,0.76-2.23,1.18&#10;&#9;&#9;l-10.88,6.35c-4.69,2.68-3.97,3.22-1.54,7.66l3.29,5.86c1.21,2.15,2.14,4.79,4.36,4.79c1.51,0,2.87-1.36,2.87-2.87&#10;&#9;&#9;c0-1.65-5.46-9.71-5.56-10.95c0.84-0.2,10.88-6.29,12.56-7.18c1,0.67,2.17,1.99,3.83,2.81c3.85,1.92,8.34,2.1,12.21,0.12&#10;&#9;&#9;c10.26-5.25,9.61-20-0.42-24.47c-5.18-2.3-11.04-1.28-14.85,2.56c-1.28,1.3-1.89,2.04-2.74,3.72&#10;&#9;&#9;C125.51,24.8,124.73,26.77,124.73,28.71L124.73,28.71z" id="el_zcQBCT4WvU"/>
	</g></g>
	<g id="el_-sHv7PT7wv">
		<path d="M144.65,104.43h-11.13v-9.15h12.02c2.05,0,4.13,2.08,4.13,4.13c0,1.58-0.14,2.72-1.53,3.85&#10;&#9;&#9;C147.21,104.03,146.27,104.43,144.65,104.43L144.65,104.43z M142.14,89.54h-8.61v-7.18h9.33&#10;&#9;&#9;C147.62,82.36,148.37,89.54,142.14,89.54L142.14,89.54z M124.91,79.31c0,0.84,0.3,1.64,0.85,2.2c0.49,0.51,1.16,0.78,2.02,0.85&#10;&#9;&#9;v22.07c-3.51,0.29-3.77,5.74,0.72,5.74h16.69c3.93,0,7.54-2.42,9.22-5.86c2.28-4.67,0.69-10.26-3.65-13.16&#10;&#9;&#9;c2.16-4.09,2.4-7.74-0.9-11.49c-0.5-0.57-1.82-1.6-2.52-1.97c-0.57-0.3-2.61-1.08-3.4-1.08h-15.97&#10;&#9;&#9;C126.25,76.62,124.91,77.99,124.91,79.31L124.91,79.31z" id="el_DS7ZJ01vA1"/>
	</g>
</g>
</svg>
